<svg width="14" height="14" viewBox="0 0 14 14" fill="none" xmlns="http://www.w3.org/2000/svg">
<path d="M6.68678 1.0367C3.53823 1.19975 1.03556 3.80794 1.03556 7.00051C1.03556 9.23579 2.25827 10.9316 3.98921 12.1922V5.38163L5.27678 4.86686L8.97522 8.07602V0.276793C11.8793 1.13033 14 3.81745 14 7.00051C14 10.7655 11.0337 13.836 7.31322 14V12.9633C10.4617 12.8002 12.9644 10.1931 12.9644 7.00051C12.9644 4.76522 11.7417 3.06943 10.0108 1.80886V8.61837L8.7222 9.13314L5.02478 5.925V13.7232C2.12085 12.8696 0 10.1835 0 7.00051C0 3.23548 2.96625 0.164015 6.68678 0V1.0367Z" fill="white"/>
</svg>
